<svg width="386" height="128" viewBox="0 0 386 128" fill="none" xmlns="http://www.w3.org/2000/svg">
<path d="M48.08 16H40V24.08H48.08V16Z" fill="#864300"/>
<path d="M56.08 16H48V24.08H56.08V16Z" fill="#864300"/>
<path d="M64.08 16H56V24.08H64.08V16Z" fill="#864300"/>
<path d="M72.08 16H64V24.08H72.08V16Z" fill="#864300"/>
<path d="M80.08 16H72V24.08H80.08V16Z" fill="#864300"/>
<path d="M88.08 16H80V24.08H88.08V16Z" fill="#864300"/>
<path d="M40.08 24H32V32.08H40.08V24Z" fill="#864300"/>
<path d="M48.08 24H40V32.08H48.08V24Z" fill="#864300"/>
<path d="M56.08 24H48V32.08H56.08V24Z" fill="#864300"/>
<path d="M64.08 24H56V32.08H64.08V24Z" fill="#864300"/>
<path d="M72.08 24H64V32.08H72.08V24Z" fill="#864300"/>
<path d="M80.08 24H72V32.08H80.08V24Z" fill="#864300"/>
<path d="M88.08 24H80V32.08H88.08V24Z" fill="#864300"/>
<path d="M96.08 24H88V32.08H96.08V24Z" fill="#864300"/>
<path d="M32.08 32H24V40.08H32.08V32Z" fill="#864300"/>
<path d="M40.08 32H32V40.08H40.08V32Z" fill="#864300"/>
<path d="M48.08 32H40V40.08H48.08V32Z" fill="#864300"/>
<path d="M56.08 32H48V40.08H56.08V32Z" fill="#864300"/>
<path d="M64.08 32H56V40.08H64.08V32Z" fill="#864300"/>
<path d="M72.08 32H64V40.08H72.08V32Z" fill="#864300"/>
<path d="M80.08 32H72V40.08H80.08V32Z" fill="#864300"/>
<path d="M88.08 32H80V40.08H88.08V32Z" fill="#864300"/>
<path d="M96.08 32H88V40.08H96.08V32Z" fill="#864300"/>
<path d="M104.08 32H96V40.08H104.08V32Z" fill="#864300"/>
<path d="M32.08 40H24V48.08H32.08V40Z" fill="#864300"/>
<path d="M40.08 40H32V48.08H40.08V40Z" fill="#F4D199"/>
<path d="M48.08 40H40V48.08H48.08V40Z" fill="#F4D199"/>
<path d="M56.08 40H48V48.08H56.08V40Z" fill="#F4D199"/>
<path d="M64.08 40H56V48.08H64.08V40Z" fill="#864300"/>
<path d="M72.08 40H64V48.08H72.08V40Z" fill="#864300"/>
<path d="M80.08 40H72V48.08H80.08V40Z" fill="#F4D199"/>
<path d="M88.08 40H80V48.08H88.08V40Z" fill="#F4D199"/>
<path d="M96.08 40H88V48.08H96.08V40Z" fill="#F4D199"/>
<path d="M104.08 40H96V48.08H104.08V40Z" fill="#864300"/>
<path d="M24.08 48H16V56.08H24.08V48Z" fill="#864300"/>
<path d="M32.08 48H24V56.08H32.08V48Z" fill="#F4D199"/>
<path d="M40.08 48H32V56.08H40.08V48Z" fill="#F4D199"/>
<path d="M48.08 48H40V56.08H48.08V48Z" fill="#F4D199"/>
<path d="M56.08 48H48V56.08H56.08V48Z" fill="#F4D199"/>
<path d="M64.08 48H56V56.08H64.08V48Z" fill="#F4D199"/>
<path d="M72.08 48H64V56.08H72.08V48Z" fill="#F4D199"/>
<path d="M80.08 48H72V56.08H80.08V48Z" fill="#F4D199"/>
<path d="M88.08 48H80V56.08H88.08V48Z" fill="#F4D199"/>
<path d="M96.08 48H88V56.08H96.08V48Z" fill="#F4D199"/>
<path d="M104.08 48H96V56.08H104.08V48Z" fill="#F4D199"/>
<path d="M112.08 48H104V56.08H112.08V48Z" fill="#864300"/>
<path d="M24.08 56H16V64.08H24.08V56Z" fill="#864300"/>
<path d="M32.08 56H24V64.08H32.08V56Z" fill="#F4D199"/>
<path d="M40.08 56H32V64.08H40.08V56Z" fill="#F4D199"/>
<path d="M48.08 56H40V64.08H48.08V56Z" fill="#F4D199"/>
<path d="M56.08 56H48V64.08H56.08V56Z" fill="#F4D199"/>
<path d="M64.08 56H56V64.08H64.08V56Z" fill="#F4D199"/>
<path d="M72.08 56H64V64.08H72.08V56Z" fill="#F4D199"/>
<path d="M80.08 56H72V64.08H80.08V56Z" fill="#F4D199"/>
<path d="M88.08 56H80V64.08H88.08V56Z" fill="#F4D199"/>
<path d="M96.08 56H88V64.08H96.08V56Z" fill="#F4D199"/>
<path d="M104.08 56H96V64.08H104.08V56Z" fill="#F4D199"/>
<path d="M112.08 56H104V64.08H112.08V56Z" fill="#864300"/>
<path d="M16.08 64H8V72.08H16.08V64Z" fill="#F4D199"/>
<path d="M24.08 64H16V72.08H24.08V64Z" fill="#864300"/>
<path d="M32.08 64H24V72.08H32.08V64Z" fill="#F4D199"/>
<path d="M40.08 64H32V72.08H40.08V64Z" fill="#F4D199"/>
<path d="M48.08 64H40V72.08H48.08V64Z" fill="black"/>
<path d="M56.08 64H48V72.08H56.08V64Z" fill="#F4D199"/>
<path d="M64.08 64H56V72.08H64.08V64Z" fill="#F4D199"/>
<path d="M72.08 64H64V72.08H72.08V64Z" fill="#F4D199"/>
<path d="M80.08 64H72V72.08H80.08V64Z" fill="#F4D199"/>
<path d="M88.08 64H80V72.08H88.08V64Z" fill="black"/>
<path d="M96.08 64H88V72.08H96.08V64Z" fill="#F4D199"/>
<path d="M104.08 64H96V72.08H104.08V64Z" fill="#F4D199"/>
<path d="M112.08 64H104V72.08H112.08V64Z" fill="#864300"/>
<path d="M120.08 64H112V72.08H120.08V64Z" fill="#F4D199"/>
<path d="M16.08 72H8V80.08H16.08V72Z" fill="#F4D199"/>
<path d="M24.08 72H16V80.08H24.08V72Z" fill="#864300"/>
<path d="M32.08 72H24V80.08H32.08V72Z" fill="#F4D199"/>
<path d="M40.08 72H32V80.08H40.08V72Z" fill="#F4D199"/>
<path d="M48.08 72H40V80.08H48.08V72Z" fill="black"/>
<path d="M56.08 72H48V80.08H56.08V72Z" fill="#F4D199"/>
<path d="M64.08 72H56V80.08H64.08V72Z" fill="#F4D199"/>
<path d="M72.08 72H64V80.08H72.08V72Z" fill="#F4D199"/>
<path d="M80.08 72H72V80.08H80.08V72Z" fill="#F4D199"/>
<path d="M88.08 72H80V80.08H88.08V72Z" fill="black"/>
<path d="M96.08 72H88V80.08H96.08V72Z" fill="#F4D199"/>
<path d="M104.08 72H96V80.08H104.08V72Z" fill="#F4D199"/>
<path d="M112.08 72H104V80.08H112.08V72Z" fill="#864300"/>
<path d="M120.08 72H112V80.08H120.08V72Z" fill="#F4D199"/>
<path d="M24.08 80H16V88.08H24.08V80Z" fill="#864300"/>
<path d="M32.08 80H24V88.08H32.08V80Z" fill="#F4D199"/>
<path d="M40.08 80H32V88.08H40.08V80Z" fill="#F4D199"/>
<path d="M48.08 80H40V88.08H48.08V80Z" fill="#F4D199"/>
<path d="M56.08 80H48V88.08H56.08V80Z" fill="#F4D199"/>
<path d="M64.08 80H56V88.08H64.08V80Z" fill="#F4D199"/>
<path d="M72.08 80H64V88.08H72.08V80Z" fill="#F4D199"/>
<path d="M80.08 80H72V88.08H80.08V80Z" fill="#F4D199"/>
<path d="M88.08 80H80V88.08H88.08V80Z" fill="#F4D199"/>
<path d="M96.08 80H88V88.08H96.08V80Z" fill="#F4D199"/>
<path d="M104.08 80H96V88.08H104.08V80Z" fill="#F4D199"/>
<path d="M112.08 80H104V88.08H112.08V80Z" fill="#864300"/>
<path d="M32.08 88H24V96.08H32.08V88Z" fill="#864300"/>
<path d="M40.08 88H32V96.08H40.08V88Z" fill="#F4D199"/>
<path d="M48.08 88H40V96.08H48.08V88Z" fill="#F4D199"/>
<path d="M56.08 88H48V96.08H56.08V88Z" fill="#F4D199"/>
<path d="M64.08 88H56V96.08H64.08V88Z" fill="#FE7269"/>
<path d="M72.08 88H64V96.08H72.08V88Z" fill="#FE7269"/>
<path d="M80.08 88H72V96.08H80.08V88Z" fill="#F4D199"/>
<path d="M88.08 88H80V96.08H88.08V88Z" fill="#F4D199"/>
<path d="M96.08 88H88V96.08H96.08V88Z" fill="#F4D199"/>
<path d="M104.08 88H96V96.08H104.08V88Z" fill="#864300"/>
<path d="M40.08 96H32V104.08H40.08V96Z" fill="#864300"/>
<path d="M48.08 96H40V104.08H48.08V96Z" fill="#864300"/>
<path d="M56.08 96H48V104.08H56.08V96Z" fill="#F4D199"/>
<path d="M64.08 96H56V104.08H64.08V96Z" fill="#F4D199"/>
<path d="M72.08 96H64V104.08H72.08V96Z" fill="#F4D199"/>
<path d="M80.08 96H72V104.08H80.08V96Z" fill="#F4D199"/>
<path d="M88.08 96H80V104.08H88.08V96Z" fill="#864300"/>
<path d="M96.08 96H88V104.08H96.08V96Z" fill="#864300"/>
<path d="M48.08 104H40V112.08H48.08V104Z" fill="#864300"/>
<path d="M56.08 104H48V112.08H56.08V104Z" fill="#864300"/>
<path d="M64.08 104H56V112.08H64.08V104Z" fill="#864300"/>
<path d="M72.08 104H64V112.08H72.08V104Z" fill="#864300"/>
<path d="M80.08 104H72V112.08H80.08V104Z" fill="#864300"/>
<path d="M88.08 104H80V112.08H88.08V104Z" fill="#864300"/>
<path d="M187.045 74.1816H181.542V79.6846H153.503V74.1816H148V24.1309H153.503V18.6279H181.542V24.1309H187.045V35.6609H175.515V24.655H159.53V73.6575H175.515V62.6516H187.045V74.1816Z" fill="white"/>
<path d="M242.074 79.6846H230.544V52.1698H209.057V79.6846H197.527V18.6279H209.057V46.1427H230.544V18.6279H242.074V79.6846Z" fill="white"/>
<path d="M264.086 79.6846H252.556V18.6279H264.086V79.6846Z" fill="white"/>
<path d="M335.625 79.6846H324.095V35.6609H319.116V41.1639H313.613V46.6668H308.11V52.1698H302.083V46.6668H296.58V41.1639H291.077V35.6609H286.098V79.6846H274.568V18.6279H286.098V24.1309H291.601V29.6338H297.104V35.1368H302.607V40.6398H307.586V35.1368H313.089V29.6338H318.592V24.1309H324.095V18.6279H335.625V79.6846Z" fill="white"/>
<path d="M385.151 52.1698H379.648V57.6727H357.637V79.6846H346.107V18.6279H379.648V24.1309H385.151V52.1698ZM373.621 51.6457V24.655H357.637V51.6457H373.621Z" fill="white"/>
<path d="M155.34 105.745H154.434V106.652H148.907V105.745H148V97.4981H148.907V96.5913H154.434V97.4981H155.34V105.745ZM153.441 105.659V97.5845H149.9V105.659H153.441Z" fill="white"/>
<path d="M162.595 106.652H160.695V99.398H159.874V100.305H158.968V106.652H157.068V98.4049H158.061V99.3116H159.788V98.4049H161.688V99.3116H162.595V106.652Z" fill="white"/>
<path d="M168.942 103.025H164.322V102.032H168.942V103.025Z" fill="white"/>
<path d="M177.103 105.745H176.196V106.652H171.576V105.745H170.669V97.4981H171.576V96.5913H176.196V97.4981H177.103V99.398H175.203V97.5845H172.569V105.659H175.203V103.845H177.103V105.745Z" fill="white"/>
<path d="M184.357 106.652H182.457V99.398H181.637V100.305H180.73V106.652H178.83V95.6846H180.73V99.3116H181.55V98.4049H183.45V99.3116H184.357V106.652Z" fill="white"/>
<path d="M191.611 106.652H190.618V105.745H189.797V106.652H186.991V105.745H186.084V102.939H186.991V102.032H189.711V99.398H187.984V101.212H186.084V99.3116H186.991V98.4049H190.704V99.3116H191.611V106.652ZM189.711 105.659V103.025H187.984V105.659H189.711Z" fill="white"/>
<path d="M195.238 97.5845H193.338V95.6846H195.238V97.5845ZM195.238 106.652H193.338V98.4049H195.238V106.652Z" fill="white"/>
<path d="M202.492 106.652H200.592V99.398H199.772V100.305H198.865V106.652H196.965V98.4049H197.958V99.3116H199.685V98.4049H201.585V99.3116H202.492V106.652Z" fill="white"/>
<path d="M209.746 106.652H207.846V96.5913H209.746V106.652Z" fill="white"/>
<path d="M220.627 106.652H218.727V99.398H217.907V100.305H217V106.652H215.1V99.398H214.28V100.305H213.373V106.652H211.473V98.4049H212.466V99.3116H214.194V98.4049H216.094V99.3116H217.821V98.4049H219.721V99.3116H220.627V106.652Z" fill="white"/>
<path d="M227.881 106.652H226.888V105.745H226.068V106.652H223.261V105.745H222.355V102.939H223.261V102.032H225.982V99.398H224.254V101.212H222.355V99.3116H223.261V98.4049H226.975V99.3116H227.881V106.652ZM225.982 105.659V103.025H224.254V105.659H225.982Z" fill="white"/>
<path d="M235.136 108.466H233.322V109.372H230.515V108.466H229.609V107.472H231.508V108.379H233.236V106.652H230.515V105.745H229.609V99.3116H230.515V98.4049H234.229V99.3116H235.136V108.466ZM233.236 105.659V99.398H231.508V105.659H233.236Z" fill="white"/>
<path d="M242.39 105.745H241.483V106.652H237.769V105.745H236.863V99.3116H237.769V98.4049H241.483V99.3116H242.39V102.118H241.483V103.025H238.763V105.659H240.49V103.845H242.39V105.745ZM240.49 102.032V99.398H238.763V102.032H240.49Z" fill="white"/>
<path d="M257.805 106.652H255.905V99.398H255.084V100.305H254.178V101.212H253.271V102.118H252.278V101.212H251.371V100.305H250.464V99.398H249.644V106.652H247.744V96.5913H249.644V97.4981H250.55V98.4049H251.457V99.3116H252.364V100.218H253.184V99.3116H254.091V98.4049H254.998V97.4981H255.905V96.5913H257.805V106.652Z" fill="white"/>
<path d="M265.059 106.652H264.066V105.745H263.245V106.652H260.439V105.745H259.532V102.939H260.439V102.032H263.159V99.398H261.432V101.212H259.532V99.3116H260.439V98.4049H264.152V99.3116H265.059V106.652ZM263.159 105.659V103.025H261.432V105.659H263.159Z" fill="white"/>
<path d="M272.313 106.652H270.413V99.398H269.593V100.305H268.686V106.652H266.786V98.4049H267.779V99.3116H269.506V98.4049H271.406V99.3116H272.313V106.652Z" fill="white"/>
<path d="M275.94 97.5845H274.04V95.6846H275.94V97.5845ZM275.94 106.652H274.04V98.4049H275.94V106.652Z" fill="white"/>
<path d="M283.194 105.745H282.287V106.652H280.387V105.745H279.567V109.372H277.667V98.4049H278.66V99.3116H280.387V98.4049H282.287V99.3116H283.194V105.745ZM281.294 105.659V99.398H280.474V100.305H279.567V104.752H280.474V105.659H281.294Z" fill="white"/>
<path d="M290.448 106.652H289.455V105.745H287.728V106.652H285.828V105.745H284.921V98.4049H286.821V105.659H287.641V104.752H288.548V98.4049H290.448V106.652Z" fill="white"/>
<path d="M294.982 106.652H293.082V105.745H292.175V95.6846H294.075V105.659H294.982V106.652Z" fill="white"/>
<path d="M301.329 106.652H300.336V105.745H299.516V106.652H296.709V105.745H295.802V102.939H296.709V102.032H299.429V99.398H297.702V101.212H295.802V99.3116H296.709V98.4049H300.422V99.3116H301.329V106.652ZM299.429 105.659V103.025H297.702V105.659H299.429Z" fill="white"/>
<path d="M307.677 105.745H306.77V106.652H303.963V105.745H303.056V99.398H302.15V98.4049H303.056V96.5913H304.956V98.4049H306.77V99.398H304.956V105.659H305.777V103.845H307.677V105.745Z" fill="white"/>
<path d="M310.397 97.5845H308.497V95.6846H310.397V97.5845ZM310.397 106.652H308.497V98.4049H310.397V106.652Z" fill="white"/>
<path d="M317.651 105.745H316.744V106.652H313.031V105.745H312.124V99.3116H313.031V98.4049H316.744V99.3116H317.651V105.745ZM315.751 105.659V99.398H314.024V105.659H315.751Z" fill="white"/>
<path d="M324.905 106.652H323.005V99.398H322.185V100.305H321.278V106.652H319.378V98.4049H320.371V99.3116H322.098V98.4049H323.998V99.3116H324.905V106.652Z" fill="white"/>
<path d="M336.693 102.118H335.786V103.025H332.159V106.652H330.259V96.5913H335.786V97.4981H336.693V102.118ZM334.793 102.032V97.5845H332.159V102.032H334.793Z" fill="white"/>
<path d="M343.947 101.212H342.047V99.398H341.227V100.305H340.32V106.652H338.42V98.4049H339.413V99.3116H341.14V98.4049H343.04V99.3116H343.947V101.212Z" fill="white"/>
<path d="M350.294 105.745H349.388V106.652H345.674V105.745H344.767V99.3116H345.674V98.4049H349.388V99.3116H350.294V105.745ZM348.394 105.659V99.398H346.667V105.659H348.394Z" fill="white"/>
<path d="M357.548 108.466H355.735V109.372H352.928V108.466H352.022V107.472H353.921V108.379H355.649V106.652H352.928V105.745H352.022V99.3116H352.928V98.4049H356.642V99.3116H357.548V108.466ZM355.649 105.659V99.398H353.921V105.659H355.649Z" fill="white"/>
<path d="M364.803 101.212H362.903V99.398H362.082V100.305H361.176V106.652H359.276V98.4049H360.269V99.3116H361.996V98.4049H363.896V99.3116H364.803V101.212Z" fill="white"/>
<path d="M371.15 106.652H370.157V105.745H369.336V106.652H366.53V105.745H365.623V102.939H366.53V102.032H369.25V99.398H367.523V101.212H365.623V99.3116H366.53V98.4049H370.243V99.3116H371.15V106.652ZM369.25 105.659V103.025H367.523V105.659H369.25Z" fill="white"/>
<path d="M382.031 106.652H380.131V99.398H379.311V100.305H378.404V106.652H376.504V99.398H375.684V100.305H374.777V106.652H372.877V98.4049H373.87V99.3116H375.597V98.4049H377.497V99.3116H379.224V98.4049H381.124V99.3116H382.031V106.652Z" fill="white"/>
</svg>
