<svg width="467" height="165" viewBox="0 0 467 165" fill="none" xmlns="http://www.w3.org/2000/svg">
<path d="M33.7902 156.293H32.0766V158.007H21.6316V156.293H19.918V140.708H21.6316V138.994H32.0766V140.708H33.7902V156.293ZM30.1997 156.13V140.871H23.5084V156.13H30.1997Z" fill="white"/>
<path d="M47.4992 158.007H43.9087V144.298H42.3583V146.012H40.6447V158.007H37.0542V142.421H38.9311V144.135H42.1951V142.421H45.7856V144.135H47.4992V158.007Z" fill="white"/>
<path d="M59.4946 151.152H50.7633V149.276H59.4946V151.152Z" fill="white"/>
<path d="M74.9172 156.293H73.2036V158.007H64.4723V156.293H62.7586V140.708H64.4723V138.994H73.2036V140.708H74.9172V144.298H71.3268V140.871H66.3491V156.13H71.3268V152.703H74.9172V156.293Z" fill="white"/>
<path d="M88.6263 158.007H85.0358V144.298H83.4854V146.012H81.7717V158.007H78.1813V137.28H81.7717V144.135H83.3222V142.421H86.9126V144.135H88.6263V158.007Z" fill="white"/>
<path d="M102.335 158.007H100.458V156.293H98.908V158.007H93.6039V156.293H91.8903V150.989H93.6039V149.276H98.7448V144.298H95.4808V147.725H91.8903V144.135H93.6039V142.421H100.622V144.135H102.335V158.007ZM98.7448 156.13V151.152H95.4808V156.13H98.7448Z" fill="white"/>
<path d="M109.19 140.871H105.599V137.28H109.19V140.871ZM109.19 158.007H105.599V142.421H109.19V158.007Z" fill="white"/>
<path d="M122.899 158.007H119.308V144.298H117.758V146.012H116.044V158.007H112.454V142.421H114.331V144.135H117.595V142.421H121.185V144.135H122.899V158.007Z" fill="white"/>
<path d="M136.608 158.007H133.017V138.994H136.608V158.007Z" fill="white"/>
<path d="M157.171 158.007H153.581V144.298H152.03V146.012H150.317V158.007H146.726V144.298H145.176V146.012H143.462V158.007H139.872V142.421H141.749V144.135H145.013V142.421H148.603V144.135H151.867V142.421H155.458V144.135H157.171V158.007Z" fill="white"/>
<path d="M170.88 158.007H169.004V156.293H167.453V158.007H162.149V156.293H160.435V150.989H162.149V149.276H167.29V144.298H164.026V147.725H160.435V144.135H162.149V142.421H169.167V144.135H170.88V158.007ZM167.29 156.13V151.152H164.026V156.13H167.29Z" fill="white"/>
<path d="M184.589 161.434H181.162V163.148H175.858V161.434H174.144V159.557H177.735V161.271H180.999V158.007H175.858V156.293H174.144V144.135H175.858V142.421H182.876V144.135H184.589V161.434ZM180.999 156.13V144.298H177.735V156.13H180.999Z" fill="white"/>
<path d="M198.298 156.293H196.585V158.007H189.567V156.293H187.853V144.135H189.567V142.421H196.585V144.135H198.298V149.439H196.585V151.152H191.444V156.13H194.708V152.703H198.298V156.293ZM194.708 149.276V144.298H191.444V149.276H194.708Z" fill="white"/>
<path d="M227.43 158.007H223.84V144.298H222.289V146.012H220.576V147.725H218.862V149.439H216.985V147.725H215.271V146.012H213.558V144.298H212.007V158.007H208.417V138.994H212.007V140.708H213.721V142.421H215.435V144.135H217.148V145.848H218.699V144.135H220.412V142.421H222.126V140.708H223.84V138.994H227.43V158.007Z" fill="white"/>
<path d="M241.139 158.007H239.262V156.293H237.712V158.007H232.408V156.293H230.694V150.989H232.408V149.276H237.549V144.298H234.285V147.725H230.694V144.135H232.408V142.421H239.425V144.135H241.139V158.007ZM237.549 156.13V151.152H234.285V156.13H237.549Z" fill="white"/>
<path d="M254.848 158.007H251.258V144.298H249.707V146.012H247.994V158.007H244.403V142.421H246.28V144.135H249.544V142.421H253.134V144.135H254.848V158.007Z" fill="white"/>
<path d="M261.703 140.871H258.112V137.28H261.703V140.871ZM261.703 158.007H258.112V142.421H261.703V158.007Z" fill="white"/>
<path d="M275.412 156.293H273.698V158.007H270.108V156.293H268.557V163.148H264.967V142.421H266.843V144.135H270.108V142.421H273.698V144.135H275.412V156.293ZM271.821 156.13V144.298H270.271V146.012H268.557V154.417H270.271V156.13H271.821Z" fill="white"/>
<path d="M289.121 158.007H287.244V156.293H283.98V158.007H280.389V156.293H278.676V142.421H282.266V156.13H283.817V154.417H285.53V142.421H289.121V158.007Z" fill="white"/>
<path d="M297.689 158.007H294.098V156.293H292.385V137.28H295.975V156.13H297.689V158.007Z" fill="white"/>
<path d="M309.684 158.007H307.807V156.293H306.257V158.007H300.953V156.293H299.239V150.989H300.953V149.276H306.094V144.298H302.83V147.725H299.239V144.135H300.953V142.421H307.971V144.135H309.684V158.007ZM306.094 156.13V151.152H302.83V156.13H306.094Z" fill="white"/>
<path d="M321.68 156.293H319.966V158.007H314.662V156.293H312.948V144.298H311.235V142.421H312.948V138.994H316.539V142.421H319.966V144.298H316.539V156.13H318.089V152.703H321.68V156.293Z" fill="white"/>
<path d="M326.82 140.871H323.23V137.28H326.82V140.871ZM326.82 158.007H323.23V142.421H326.82V158.007Z" fill="white"/>
<path d="M340.529 156.293H338.816V158.007H331.798V156.293H330.084V144.135H331.798V142.421H338.816V144.135H340.529V156.293ZM336.939 156.13V144.298H333.675V156.13H336.939Z" fill="white"/>
<path d="M354.238 158.007H350.648V144.298H349.098V146.012H347.384V158.007H343.793V142.421H345.67V144.135H348.934V142.421H352.525V144.135H354.238V158.007Z" fill="white"/>
<path d="M376.516 149.439H374.802V151.152H367.947V158.007H364.357V138.994H374.802V140.708H376.516V149.439ZM372.925 149.276V140.871H367.947V149.276H372.925Z" fill="white"/>
<path d="M390.225 147.725H386.634V144.298H385.084V146.012H383.37V158.007H379.78V142.421H381.656V144.135H384.921V142.421H388.511V144.135H390.225V147.725Z" fill="white"/>
<path d="M402.22 156.293H400.506V158.007H393.489V156.293H391.775V144.135H393.489V142.421H400.506V144.135H402.22V156.293ZM398.63 156.13V144.298H395.365V156.13H398.63Z" fill="white"/>
<path d="M415.929 161.434H412.502V163.148H407.198V161.434H405.484V159.557H409.074V161.271H412.339V158.007H407.198V156.293H405.484V144.135H407.198V142.421H414.215V144.135H415.929V161.434ZM412.339 156.13V144.298H409.074V156.13H412.339Z" fill="white"/>
<path d="M429.638 147.725H426.048V144.298H424.497V146.012H422.784V158.007H419.193V142.421H421.07V144.135H424.334V142.421H427.924V144.135H429.638V147.725Z" fill="white"/>
<path d="M441.633 158.007H439.757V156.293H438.206V158.007H432.902V156.293H431.188V150.989H432.902V149.276H438.043V144.298H434.779V147.725H431.188V144.135H432.902V142.421H439.92V144.135H441.633V158.007ZM438.043 156.13V151.152H434.779V156.13H438.043Z" fill="white"/>
<path d="M462.197 158.007H458.606V144.298H457.056V146.012H455.342V158.007H451.752V144.298H450.202V146.012H448.488V158.007H444.897V142.421H446.774V144.135H450.038V142.421H453.629V144.135H456.893V142.421H460.483V144.135H462.197V158.007Z" fill="white"/>
<path d="M48.08 16H40V24.08H48.08V16Z" fill="#864300"/>
<path d="M56.08 16H48V24.08H56.08V16Z" fill="#864300"/>
<path d="M64.08 16H56V24.08H64.08V16Z" fill="#864300"/>
<path d="M72.08 16H64V24.08H72.08V16Z" fill="#864300"/>
<path d="M80.08 16H72V24.08H80.08V16Z" fill="#864300"/>
<path d="M88.08 16H80V24.08H88.08V16Z" fill="#864300"/>
<path d="M40.08 24H32V32.08H40.08V24Z" fill="#864300"/>
<path d="M48.08 24H40V32.08H48.08V24Z" fill="#864300"/>
<path d="M56.08 24H48V32.08H56.08V24Z" fill="#864300"/>
<path d="M64.08 24H56V32.08H64.08V24Z" fill="#864300"/>
<path d="M72.08 24H64V32.08H72.08V24Z" fill="#864300"/>
<path d="M80.08 24H72V32.08H80.08V24Z" fill="#864300"/>
<path d="M88.08 24H80V32.08H88.08V24Z" fill="#864300"/>
<path d="M96.08 24H88V32.08H96.08V24Z" fill="#864300"/>
<path d="M32.08 32H24V40.08H32.08V32Z" fill="#864300"/>
<path d="M40.08 32H32V40.08H40.08V32Z" fill="#864300"/>
<path d="M48.08 32H40V40.08H48.08V32Z" fill="#864300"/>
<path d="M56.08 32H48V40.08H56.08V32Z" fill="#864300"/>
<path d="M64.08 32H56V40.08H64.08V32Z" fill="#864300"/>
<path d="M72.08 32H64V40.08H72.08V32Z" fill="#864300"/>
<path d="M80.08 32H72V40.08H80.08V32Z" fill="#864300"/>
<path d="M88.08 32H80V40.08H88.08V32Z" fill="#864300"/>
<path d="M96.08 32H88V40.08H96.08V32Z" fill="#864300"/>
<path d="M104.08 32H96V40.08H104.08V32Z" fill="#864300"/>
<path d="M32.08 40H24V48.08H32.08V40Z" fill="#864300"/>
<path d="M40.08 40H32V48.08H40.08V40Z" fill="#F4D199"/>
<path d="M48.08 40H40V48.08H48.08V40Z" fill="#F4D199"/>
<path d="M56.08 40H48V48.08H56.08V40Z" fill="#F4D199"/>
<path d="M64.08 40H56V48.08H64.08V40Z" fill="#864300"/>
<path d="M72.08 40H64V48.08H72.08V40Z" fill="#864300"/>
<path d="M80.08 40H72V48.08H80.08V40Z" fill="#F4D199"/>
<path d="M88.08 40H80V48.08H88.08V40Z" fill="#F4D199"/>
<path d="M96.08 40H88V48.08H96.08V40Z" fill="#F4D199"/>
<path d="M104.08 40H96V48.08H104.08V40Z" fill="#864300"/>
<path d="M24.08 48H16V56.08H24.08V48Z" fill="#864300"/>
<path d="M32.08 48H24V56.08H32.08V48Z" fill="#F4D199"/>
<path d="M40.08 48H32V56.08H40.08V48Z" fill="#F4D199"/>
<path d="M48.08 48H40V56.08H48.08V48Z" fill="#F4D199"/>
<path d="M56.08 48H48V56.08H56.08V48Z" fill="#F4D199"/>
<path d="M64.08 48H56V56.08H64.08V48Z" fill="#F4D199"/>
<path d="M72.08 48H64V56.08H72.08V48Z" fill="#F4D199"/>
<path d="M80.08 48H72V56.08H80.08V48Z" fill="#F4D199"/>
<path d="M88.08 48H80V56.08H88.08V48Z" fill="#F4D199"/>
<path d="M96.08 48H88V56.08H96.08V48Z" fill="#F4D199"/>
<path d="M104.08 48H96V56.08H104.08V48Z" fill="#F4D199"/>
<path d="M112.08 48H104V56.08H112.08V48Z" fill="#864300"/>
<path d="M24.08 56H16V64.08H24.08V56Z" fill="#864300"/>
<path d="M32.08 56H24V64.08H32.08V56Z" fill="#F4D199"/>
<path d="M40.08 56H32V64.08H40.08V56Z" fill="#F4D199"/>
<path d="M48.08 56H40V64.08H48.08V56Z" fill="#F4D199"/>
<path d="M56.08 56H48V64.08H56.08V56Z" fill="#F4D199"/>
<path d="M64.08 56H56V64.08H64.08V56Z" fill="#F4D199"/>
<path d="M72.08 56H64V64.08H72.08V56Z" fill="#F4D199"/>
<path d="M80.08 56H72V64.08H80.08V56Z" fill="#F4D199"/>
<path d="M88.08 56H80V64.08H88.08V56Z" fill="#F4D199"/>
<path d="M96.08 56H88V64.08H96.08V56Z" fill="#F4D199"/>
<path d="M104.08 56H96V64.08H104.08V56Z" fill="#F4D199"/>
<path d="M112.08 56H104V64.08H112.08V56Z" fill="#864300"/>
<path d="M16.08 64H8V72.08H16.08V64Z" fill="#F4D199"/>
<path d="M24.08 64H16V72.08H24.08V64Z" fill="#864300"/>
<path d="M32.08 64H24V72.08H32.08V64Z" fill="#F4D199"/>
<path d="M40.08 64H32V72.08H40.08V64Z" fill="#F4D199"/>
<path d="M48.08 64H40V72.08H48.08V64Z" fill="black"/>
<path d="M56.08 64H48V72.08H56.08V64Z" fill="#F4D199"/>
<path d="M64.08 64H56V72.08H64.08V64Z" fill="#F4D199"/>
<path d="M72.08 64H64V72.08H72.08V64Z" fill="#F4D199"/>
<path d="M80.08 64H72V72.08H80.08V64Z" fill="#F4D199"/>
<path d="M88.08 64H80V72.08H88.08V64Z" fill="black"/>
<path d="M96.08 64H88V72.08H96.08V64Z" fill="#F4D199"/>
<path d="M104.08 64H96V72.08H104.08V64Z" fill="#F4D199"/>
<path d="M112.08 64H104V72.08H112.08V64Z" fill="#864300"/>
<path d="M120.08 64H112V72.08H120.08V64Z" fill="#F4D199"/>
<path d="M16.08 72H8V80.08H16.08V72Z" fill="#F4D199"/>
<path d="M24.08 72H16V80.08H24.08V72Z" fill="#864300"/>
<path d="M32.08 72H24V80.08H32.08V72Z" fill="#F4D199"/>
<path d="M40.08 72H32V80.08H40.08V72Z" fill="#F4D199"/>
<path d="M48.08 72H40V80.08H48.08V72Z" fill="black"/>
<path d="M56.08 72H48V80.08H56.08V72Z" fill="#F4D199"/>
<path d="M64.08 72H56V80.08H64.08V72Z" fill="#F4D199"/>
<path d="M72.08 72H64V80.08H72.08V72Z" fill="#F4D199"/>
<path d="M80.08 72H72V80.08H80.08V72Z" fill="#F4D199"/>
<path d="M88.08 72H80V80.08H88.08V72Z" fill="black"/>
<path d="M96.08 72H88V80.08H96.08V72Z" fill="#F4D199"/>
<path d="M104.08 72H96V80.08H104.08V72Z" fill="#F4D199"/>
<path d="M112.08 72H104V80.08H112.08V72Z" fill="#864300"/>
<path d="M120.08 72H112V80.08H120.08V72Z" fill="#F4D199"/>
<path d="M24.08 80H16V88.08H24.08V80Z" fill="#864300"/>
<path d="M32.08 80H24V88.08H32.08V80Z" fill="#F4D199"/>
<path d="M40.08 80H32V88.08H40.08V80Z" fill="#F4D199"/>
<path d="M48.08 80H40V88.08H48.08V80Z" fill="#F4D199"/>
<path d="M56.08 80H48V88.08H56.08V80Z" fill="#F4D199"/>
<path d="M64.08 80H56V88.08H64.08V80Z" fill="#F4D199"/>
<path d="M72.08 80H64V88.08H72.08V80Z" fill="#F4D199"/>
<path d="M80.08 80H72V88.08H80.08V80Z" fill="#F4D199"/>
<path d="M88.08 80H80V88.08H88.08V80Z" fill="#F4D199"/>
<path d="M96.08 80H88V88.08H96.08V80Z" fill="#F4D199"/>
<path d="M104.08 80H96V88.08H104.08V80Z" fill="#F4D199"/>
<path d="M112.08 80H104V88.08H112.08V80Z" fill="#864300"/>
<path d="M32.08 88H24V96.08H32.08V88Z" fill="#864300"/>
<path d="M40.08 88H32V96.08H40.08V88Z" fill="#F4D199"/>
<path d="M48.08 88H40V96.08H48.08V88Z" fill="#F4D199"/>
<path d="M56.08 88H48V96.08H56.08V88Z" fill="#F4D199"/>
<path d="M64.08 88H56V96.08H64.08V88Z" fill="#FE7269"/>
<path d="M72.08 88H64V96.08H72.08V88Z" fill="#FE7269"/>
<path d="M80.08 88H72V96.08H80.08V88Z" fill="#F4D199"/>
<path d="M88.08 88H80V96.08H88.08V88Z" fill="#F4D199"/>
<path d="M96.08 88H88V96.08H96.08V88Z" fill="#F4D199"/>
<path d="M104.08 88H96V96.08H104.08V88Z" fill="#864300"/>
<path d="M40.08 96H32V104.08H40.08V96Z" fill="#864300"/>
<path d="M48.08 96H40V104.08H48.08V96Z" fill="#864300"/>
<path d="M56.08 96H48V104.08H56.08V96Z" fill="#F4D199"/>
<path d="M64.08 96H56V104.08H64.08V96Z" fill="#F4D199"/>
<path d="M72.08 96H64V104.08H72.08V96Z" fill="#F4D199"/>
<path d="M80.08 96H72V104.08H80.08V96Z" fill="#F4D199"/>
<path d="M88.08 96H80V104.08H88.08V96Z" fill="#864300"/>
<path d="M96.08 96H88V104.08H96.08V96Z" fill="#864300"/>
<path d="M48.08 104H40V112.08H48.08V104Z" fill="#864300"/>
<path d="M56.08 104H48V112.08H56.08V104Z" fill="#864300"/>
<path d="M64.08 104H56V112.08H64.08V104Z" fill="#864300"/>
<path d="M72.08 104H64V112.08H72.08V104Z" fill="#864300"/>
<path d="M80.08 104H72V112.08H80.08V104Z" fill="#864300"/>
<path d="M88.08 104H80V112.08H88.08V104Z" fill="#864300"/>
<path d="M200.356 97.5573H192.977V104.936H155.379V97.5573H148V30.4435H155.379V23.0645H192.977V30.4435H200.356V45.9042H184.895V31.1462H163.461V96.8545H184.895V82.0965H200.356V97.5573Z" fill="white"/>
<path d="M274.146 104.936H258.685V68.0413H229.872V104.936H214.411V23.0645H229.872V59.9595H258.685V23.0645H274.146V104.936Z" fill="white"/>
<path d="M303.662 104.936H288.201V23.0645H303.662V104.936Z" fill="white"/>
<path d="M399.589 104.936H384.128V45.9042H377.452V53.2832H370.073V60.6622H362.694V68.0413H354.612V60.6622H347.233V53.2832H339.854V45.9042H333.178V104.936H317.717V23.0645H333.178V30.4435H340.557V37.8225H347.936V45.2015H355.315V52.5805H361.991V45.2015H369.37V37.8225H376.749V30.4435H384.128V23.0645H399.589V104.936Z" fill="white"/>
<path d="M466 68.0413H458.621V75.4203H429.105V104.936H413.644V23.0645H458.621V30.4435H466V68.0413ZM450.539 67.3385V31.1462H429.105V67.3385H450.539Z" fill="white"/>
</svg>
